# xmcd CD database file
#
# Track frame offsets:
#	150
#	15043
#	34550
#	48404
#	69391
#	89669
#	107370
#	123425
#	136905
#	166692
#	188363
#	210731
#	220963
#	232621
#	254892
#	267394
#	283907
#	297372
#	309974
#	323716
#	335527
#
# Disc length: 4609 seconds
#
# Revision: 0
# Processed by: cddbd v1.5.2PL0 Copyright (c) Steve Scherf et al.
# Submitted via: CDex 1.51
#
DISCID=2611ff15
DTITLE=Various Artist - Collection Fnac 60 Ans - Blues-Jazz - CD1 - Jazz Vocal
DYEAR=2014
DGENRE=Jazz
TTITLE0=Gregory Porter_Hey Laura
TTITLE1=Melody Gardot - Worrisome Heart
TTITLE2=Norah Jones - Don't Know Why
TTITLE3=Diana Krall - The Look of Love
TTITLE4=Jamie Cullum_Gran Torino
TTITLE5=Madeleine Peyroux - Dance Me To The End Of Love
TTITLE6=Nikki Yanoswki - Take The A Train
TTITLE7=Therese Montcalm - My Baby Just Cares For Me
TTITLE8=Al Jarreau George Benson_long Come Tutu Album Version
TTITLE9=Dianne Reeves - Just My Imagination (Running Away With Me)
TTITLE10=George Benson - The Ghetto
TTITLE11=Louis Armstrong - What A Wonderful World
TTITLE12=Nina Simone - I Put a Spell On You
TTITLE13=Ella Fitzgerald - Summertime
TTITLE14=DINAH WASHINGTON - Mad about the boy
TTITLE15=RAY CHARLES - Georgia On My Mind
TTITLE16=ETTA JAMES - At last
TTITLE17=Stan Getz - The Girl from  Ipanema
TTITLE18=Billie Holiday - Strange Fruit (1956 Version)
TTITLE19=Sarah Vaughan - Whatever Lola Wants (Lola Gets)
TTITLE20=Chet Baker - My funny Valentine
EXTD=YEAR: 2014
EXTT0=
EXTT1=
EXTT2=
EXTT3=
EXTT4=
EXTT5=
EXTT6=
EXTT7=
EXTT8=
EXTT9=
EXTT10=
EXTT11=
EXTT12=
EXTT13=
EXTT14=
EXTT15=
EXTT16=
EXTT17=
EXTT18=
EXTT19=
EXTT20=
PLAYORDER=
